HIERARCHY
ROOT Hips
{
	OFFSET 0.000000 0.000000 0.000000
	CHANNELS 6 Xposition Yposition Zposition Zrotation Yrotation Xrotation 
	JOINT LHipJoint
	{
		OFFSET 0.000000 0.000000 0.000000
		CHANNELS 3 Zrotation Yrotation Xrotation
		JOINT LeftUpLeg
		{
			OFFSET 1.363060 -1.794630 0.839290
			CHANNELS 3 Zrotation Yrotation Xrotation
			JOINT LeftLeg
			{
				OFFSET 2.448110 -6.726130 0.000000
				CHANNELS 3 Zrotation Yrotation Xrotation
				JOINT LeftFoot
				{
					OFFSET 2.562200 -7.039590 0.000000
					CHANNELS 3 Zrotation Yrotation Xrotation
					JOINT LeftToeBase
					{
						OFFSET 0.157640 -0.433110 2.322550
						CHANNELS 3 Zrotation Yrotation Xrotation
						End Site
						{
							OFFSET 0.000000 0.000000 0.000000
						}
					}
				}
			}
		}
	}
	JOINT RHipJoint
	{
		OFFSET 0.000000 0.000000 0.000000
		CHANNELS 3 Zrotation Yrotation Xrotation
		JOINT RightUpLeg
		{
			OFFSET -1.305520 -1.794630 0.839290
			CHANNELS 3 Zrotation Yrotation Xrotation
			JOINT RightLeg
			{
				OFFSET -2.542530 -6.985550 0.000000
				CHANNELS 3 Zrotation Yrotation Xrotation
				JOINT RightFoot
				{
					OFFSET -2.568260 -7.056230 0.000000
					CHANNELS 3 Zrotation Yrotation Xrotation
					JOINT RightToeBase
					{
						OFFSET -0.164730 -0.452590 2.363150
						CHANNELS 3 Zrotation Yrotation Xrotation
						End Site
						{
							OFFSET 0.000000 0.000000 0.000000
						}
					}
				}
			}
		}
	}
	JOINT LowerBack
	{
		OFFSET 0.000000 0.000000 0.000000
		CHANNELS 3 Zrotation Yrotation Xrotation
		JOINT Spine
		{
			OFFSET 0.028270 2.035590 -0.193380
			CHANNELS 3 Zrotation Yrotation Xrotation
			JOINT Spine1
			{
				OFFSET 0.056720 2.048850 -0.042750
				CHANNELS 3 Zrotation Yrotation Xrotation
				JOINT Neck
				{
					OFFSET 0.000000 0.000000 0.000000
					CHANNELS 3 Zrotation Yrotation Xrotation
					JOINT Neck1
					{
						OFFSET -0.054170 1.746240 0.172020
						CHANNELS 3 Zrotation Yrotation Xrotation
						JOINT Head
						{
							OFFSET 0.104070 1.761360 -0.123970
							CHANNELS 3 Zrotation Yrotation Xrotation
							End Site
							{
								OFFSET 0.000000 0.000000 0.000000
							}
						}
					}
				}
				JOINT LeftShoulder
				{
					OFFSET 0.000000 0.000000 0.000000
					CHANNELS 3 Zrotation Yrotation Xrotation
					JOINT LeftArm
					{
						OFFSET 3.362410 1.200890 -0.311210
						CHANNELS 3 Zrotation Yrotation Xrotation
						JOINT LeftForeArm
						{
							OFFSET 4.983000 -0.000000 -0.000000
							CHANNELS 3 Zrotation Yrotation Xrotation
							JOINT LeftHand
							{
								OFFSET 3.483560 -0.000000 -0.000000
								CHANNELS 3 Zrotation Yrotation Xrotation
								JOINT LeftFingerBase
								{
									OFFSET 0.000000 0.000000 0.000000
									CHANNELS 3 Zrotation Yrotation Xrotation
									JOINT LeftHandIndex1
									{
										OFFSET 0.715260 -0.000000 -0.000000
										CHANNELS 3 Zrotation Yrotation Xrotation
										End Site
										{
											OFFSET 0.000000 0.000000 0.000000
										}
									}
								}
								JOINT LThumb
								{
									OFFSET 0.000000 0.000000 0.000000
									CHANNELS 3 Zrotation Yrotation Xrotation
									End Site
									{
										OFFSET 0.000000 0.000000 0.000000
									}
								}
							}
						}
					}
				}
				JOINT RightShoulder
				{
					OFFSET 0.000000 0.000000 0.000000
					CHANNELS 3 Zrotation Yrotation Xrotation
					JOINT RightArm
					{
						OFFSET -3.136600 1.374050 -0.404650
						CHANNELS 3 Zrotation Yrotation Xrotation
						JOINT RightForeArm
						{
							OFFSET -5.241900 -0.000000 -0.000000
							CHANNELS 3 Zrotation Yrotation Xrotation
							JOINT RightHand
							{
								OFFSET -3.444170 -0.000000 -0.000000
								CHANNELS 3 Zrotation Yrotation Xrotation
								JOINT RightFingerBase
								{
									OFFSET 0.000000 0.000000 0.000000
									CHANNELS 3 Zrotation Yrotation Xrotation
									JOINT RightHandIndex1
									{
										OFFSET -0.622530 -0.000000 -0.000000
										CHANNELS 3 Zrotation Yrotation Xrotation
										End Site
										{
											OFFSET 0.000000 0.000000 0.000000
										}
									}
								}
								JOINT RThumb
								{
									OFFSET 0.000000 0.000000 0.000000
									CHANNELS 3 Zrotation Yrotation Xrotation
									End Site
									{
										OFFSET 0.000000 0.000000 0.000000
									}
								}
							}
						}
					}
				}
			}
		}
	}
}
MOTION
Frames: 8
Frame Time: 0.008333
0.415280 21.688353 -3.967390 -2.621664 5.694644 7.897573 -1.505262 -0.812157 -0.268187 -10.741514 -1.336409 -25.138950 1.778071 10.698595 28.687914 1.278867 11.402299 31.704033 0.003700 -0.386795 -1.062835 -0.307641 0.300350 -0.183420 19.689357 1.325140 -22.148404 -1.910583 -10.177917 27.902445 0.626275 -14.184885 21.302591 -0.409159 -4.106297 11.375876 -0.155996 -0.613215 7.277730 1.560970 -0.593932 -1.876044 2.359769 -0.728064 3.909847 -3.270189 -1.792063 -7.402845 4.630829 -2.512432 27.670355 0.741712 -0.491488 10.399250 9.705914 4.921339 0.237091 -95.934420 -8.581943 41.871126 18.959610 -33.237417 -6.358809 0.112084 -0.670272 -30.610533 25.333177 -10.144132 -4.481875 -7.125000 0.000000 0.000000 -0.980511 19.554007 0.595928 -8.622439 -4.110995 -0.099200 93.559433 2.814937 24.508321 -21.201781 35.974172 -7.995548 0.694941 0.786515 21.114686 -24.383081 -19.455452 9.161393 7.125000 0.000000 0.000000 3.874501 -52.288337 -0.696000
0.418910 21.705466 -3.692790 -2.592204 5.759322 7.761431 -1.576488 -0.900938 -0.310355 -10.686545 -1.387153 -25.674313 1.378986 10.175568 27.090765 1.383703 10.617093 31.619427 0.007638 -0.563413 -1.548207 -0.224029 0.356780 -0.198684 19.388901 1.436054 -22.667439 -1.579164 -9.663773 26.248936 0.619484 -14.216773 21.415641 -0.412318 -4.121632 11.419221 -0.188613 -0.552358 7.092766 1.547817 -0.524892 -1.905206 2.347297 -0.685267 3.893449 -3.315964 -1.875522 -7.287898 4.688445 -2.650761 27.892264 0.768366 -0.550559 10.461262 9.696336 4.936555 0.236042 -95.771183 -8.424145 41.899388 18.905323 -33.186203 -6.332486 0.111392 -0.671545 -30.560590 25.188943 -10.065789 -4.416754 -7.125000 0.000000 0.000000 -1.079158 19.652513 0.653479 -8.608988 -4.119369 -0.092854 93.451038 2.547926 24.506368 -20.724270 35.494958 -7.710876 0.704204 0.789881 21.319901 -24.476513 -19.372644 9.170388 7.125000 0.000000 0.000000 3.755497 -52.227183 -0.668918
0.423318 21.699434 -3.413758 -2.564415 5.771101 7.536927 -1.658482 -0.979000 -0.336112 -10.619497 -1.418086 -26.024289 0.980046 9.606646 25.406056 1.545444 9.775216 31.766773 0.013023 -0.735893 -2.022395 -0.135712 0.406418 -0.216771 19.053351 1.566302 -23.044819 -1.275193 -9.153210 24.638046 0.592634 -14.293210 21.700467 -0.423164 -4.174977 11.569389 -0.211890 -0.476950 6.917448 1.529942 -0.435141 -1.921403 2.316573 -0.631871 3.905101 -3.353166 -1.949645 -7.132060 4.732965 -2.776784 28.117746 0.790513 -0.604634 10.508510 9.686619 4.954188 0.240034 -95.499346 -8.190594 41.986955 18.955466 -33.263035 -6.367823 0.112661 -0.673285 -30.586768 24.953972 -9.970333 -4.326044 -7.125000 0.000000 0.000000 -1.242363 19.777747 0.748852 -8.597472 -4.131036 -0.083802 93.330854 2.290249 24.564244 -20.325540 35.093491 -7.476445 0.711516 0.793480 21.508140 -24.527758 -19.326881 9.176505 7.125000 0.000000 0.000000 3.690958 -52.196575 -0.654636
0.428870 21.671814 -3.131141 -2.546028 5.737045 7.223292 -1.748796 -1.044601 -0.345985 -10.532839 -1.437686 -26.197293 0.591405 9.001867 23.660901 1.736007 8.933976 32.054679 0.017792 -0.860592 -2.365325 -0.045784 0.448880 -0.235217 18.708480 1.689739 -23.296082 -0.993525 -8.647912 23.080147 0.546906 -14.303052 22.029516 -0.424435 -4.181255 11.587093 -0.211009 -0.391781 6.765465 1.508039 -0.329824 -1.927597 2.261622 -0.569726 3.929775 -3.383314 -2.017250 -6.947258 4.767605 -2.894723 28.367376 0.810247 -0.655333 10.555292 9.676316 4.972487 0.247102 -95.134439 -7.906869 42.095897 19.078670 -33.427588 -6.446072 0.114636 -0.675415 -30.642807 24.684742 -9.901640 -4.241849 -7.125000 0.000000 0.000000 -1.431791 19.876437 0.859906 -8.588388 -4.143477 -0.072818 93.208110 2.044267 24.654451 -19.994168 34.760485 -7.283989 0.717226 0.797049 21.679640 -24.548848 -19.314454 9.183402 7.125000 0.000000 0.000000 3.667005 -52.195164 -0.650256
0.435765 21.623875 -2.845109 -2.530787 5.665334 6.830036 -1.844225 -1.096722 -0.341343 -10.435784 -1.457837 -26.210992 0.222974 8.374006 21.888309 1.925160 8.143577 32.367956 0.020923 -0.933668 -2.566298 0.041831 0.484066 -0.252390 18.366386 1.780585 -23.449132 -0.732988 -8.152619 21.591678 0.490488 -14.187473 22.289698 -0.408850 -4.104534 11.371011 -0.191091 -0.302012 6.634915 1.483132 -0.216136 -1.926514 2.187762 -0.503064 3.962109 -3.408516 -2.078369 -6.750785 4.790968 -3.002611 28.652130 0.827814 -0.701753 10.612342 9.665214 4.990454 0.255622 -94.694280 -7.602359 42.192900 19.239875 -33.637354 -6.547039 0.116956 -0.677808 -30.703552 24.432210 -9.835104 -4.162500 -7.125000 0.000000 0.000000 -1.609719 19.971494 0.963455 -8.581675 -4.155188 -0.060897 93.085709 1.818164 24.759107 -19.725196 34.491867 -7.129674 0.721154 0.800840 21.832495 -24.534367 -19.339490 9.190669 7.125000 0.000000 0.000000 3.690600 -52.226162 -0.657258
0.443959 21.555195 -2.555743 -2.515411 5.553452 6.370063 -1.940642 -1.134226 -0.323960 -10.338051 -1.472139 -26.091995 -0.113926 7.738233 20.125360 2.087012 7.460266 32.614338 0.022471 -0.967598 -2.659717 0.123432 0.511678 -0.267608 18.040565 1.831397 -23.530221 -0.496697 -7.676107 20.194199 0.439263 -13.967602 22.401744 -0.374956 -3.932608 10.887192 -0.156141 -0.207149 6.513985 1.455769 -0.094009 -1.920492 2.098814 -0.432107 4.000899 -3.423942 -2.135796 -6.550329 4.793887 -3.101668 28.975527 0.837970 -0.744522 10.683596 9.653856 5.007867 0.264601 -94.189463 -7.288621 42.250635 19.426379 -33.876497 -6.663224 0.119437 -0.680408 -30.763606 24.231805 -9.771466 -4.094819 -7.125000 0.000000 0.000000 -1.750725 20.059279 1.044524 -8.576580 -4.165410 -0.048789 92.961497 1.624303 24.867569 -19.510302 34.279546 -7.007907 0.723850 0.804414 21.965072 -24.501766 -19.385611 9.198643 7.125000 0.000000 0.000000 3.738626 -52.275037 -0.670265
0.453434 21.463786 -2.261989 -2.501326 5.398862 5.849459 -2.033999 -1.154487 -0.295005 -10.253516 -1.447801 -25.869302 -0.403277 7.118257 18.428783 2.200265 6.970565 32.746518 0.024841 -1.017364 -2.796559 0.195954 0.530003 -0.280829 17.751855 1.827246 -23.556981 -0.293737 -7.234833 18.924222 0.413778 -13.754929 22.350460 -0.327003 -3.673992 10.161389 -0.106427 -0.105116 6.379354 1.428390 0.038610 -1.910645 2.003069 -0.356901 4.055093 -3.419649 -2.187806 -6.361013 4.760767 -3.184287 29.348569 0.832519 -0.779813 10.776975 9.643794 5.026371 0.273395 -93.629107 -6.964814 42.249494 19.633299 -34.139081 -6.791764 0.121954 -0.683224 -30.850773 24.115052 -9.731470 -4.053748 -7.125000 0.000000 0.000000 -1.832629 20.115328 1.091088 -8.571586 -4.174736 -0.037475 92.822201 1.445051 24.980574 -19.371488 34.150070 -6.931425 0.725376 0.807543 22.055599 -24.466772 -19.434753 9.206197 7.125000 0.000000 0.000000 3.790103 -52.325521 -0.684263
0.463959 21.353036 -1.964278 -2.483984 5.214476 5.294539 -2.123348 -1.161526 -0.259798 -10.203183 -1.352808 -25.610611 -0.644368 6.536659 16.841218 2.273514 6.720020 32.845550 0.028690 -1.092919 -3.004493 0.260903 0.540145 -0.292713 17.496351 1.769479 -23.561396 -0.123777 -6.836506 17.782574 0.421289 -13.674669 22.222927 -0.278870 -3.394759 9.379887 -0.051521 0.001579 6.207371 1.402994 0.177374 -1.900117 1.913246 -0.279761 4.125096 -3.408249 -2.229495 -6.163428 4.705155 -3.246292 29.749519 0.819046 -0.806166 10.876939 9.635629 5.046078 0.282789 -93.043455 -6.615206 42.173061 19.860160 -34.425087 -6.933013 0.124710 -0.686216 -30.982338 24.063261 -9.711714 -4.033940 -7.125000 0.000000 0.000000 -1.868358 20.144588 1.111182 -8.566177 -4.184784 -0.026752 92.661581 1.278482 25.087961 -19.291704 34.085760 -6.889870 0.727084 0.809453 22.108455 -24.467996 -19.455458 9.216666 7.125000 0.000000 0.000000 3.795337 -52.351053 -0.687524
